<svg width="27" height="27" viewBox="0 0 27 27" fill="none" xmlns="http://www.w3.org/2000/svg">
<path d="M17.3152 19.648C15.4952 19.648 14.5852 18.822 14.5852 17.17C14.5852 16.722 14.6412 16.274 14.7532 15.826L14.8372 15.532C13.8852 16.82 12.8632 17.842 11.7712 18.598C10.7072 19.354 9.69917 19.732 8.74717 19.732C8.04717 19.732 7.45917 19.508 6.98317 19.06C6.53517 18.612 6.31117 17.898 6.31117 16.918C6.31117 16.75 6.33917 16.442 6.39517 15.994C6.61917 14.482 7.20717 13.026 8.15917 11.626C9.13917 10.226 10.2732 9.092 11.5612 8.224C12.8772 7.328 14.1092 6.88 15.2572 6.88C15.6772 6.88 16.0692 6.964 16.4332 7.132C16.8252 7.3 17.1332 7.552 17.3572 7.888C18.1412 7.58 18.6172 7.146 18.7852 6.586C18.8412 6.53 18.9252 6.502 19.0372 6.502C19.1492 6.502 19.2472 6.516 19.3312 6.544C19.4152 6.572 19.4712 6.6 19.4992 6.628L17.7772 16.036C17.7212 16.26 17.6932 16.582 17.6932 17.002C17.6932 18.038 18.2112 18.556 19.2472 18.556C19.9192 18.556 20.6052 18.318 21.3052 17.842C22.0052 17.338 22.5932 16.596 23.0692 15.616C23.5452 14.636 23.7832 13.46 23.7832 12.088C23.7832 10.212 23.3212 8.49 22.3972 6.922C21.5012 5.354 20.2552 4.122 18.6592 3.226C17.0912 2.302 15.3132 1.84 13.3252 1.84C11.1972 1.84 9.34917 2.372 7.78117 3.436C6.24117 4.472 5.05117 5.886 4.21117 7.678C3.39917 9.47 2.99317 11.43 2.99317 13.558C2.99317 15.854 3.46917 17.87 4.42117 19.606C5.37317 21.314 6.71717 22.63 8.45317 23.554C10.1892 24.506 12.2192 24.982 14.5432 24.982C15.8592 24.982 17.0632 24.828 18.1552 24.52C19.2752 24.212 20.4092 23.652 21.5572 22.84H21.5992C21.6832 22.84 21.7532 22.882 21.8092 22.966C21.8932 23.078 21.8932 23.148 21.8092 23.176C20.3532 24.408 18.9112 25.262 17.4832 25.738C16.0552 26.214 14.5712 26.452 13.0312 26.452C10.6792 26.452 8.53717 25.976 6.60517 25.024C4.70117 24.1 3.18917 22.756 2.06917 20.992C0.949172 19.2 0.389172 17.086 0.389172 14.65C0.389172 11.99 1.04717 9.61 2.36317 7.51C3.70717 5.41 5.48517 3.786 7.69717 2.638C9.90917 1.462 12.2752 0.873999 14.7952 0.873999C17.0352 0.873999 19.0092 1.336 20.7172 2.26C22.4252 3.156 23.7412 4.36 24.6652 5.872C25.6172 7.356 26.0932 8.98 26.0932 10.744C26.0932 12.368 25.7012 13.866 24.9172 15.238C24.1332 16.582 23.0692 17.66 21.7252 18.472C20.3812 19.256 18.9112 19.648 17.3152 19.648ZM10.8472 17.044C11.3792 17.044 11.9812 16.722 12.6532 16.078C13.3532 15.406 13.9972 14.552 14.5852 13.516C15.1732 12.48 15.5652 11.458 15.7612 10.45C15.8172 10.058 15.8452 9.778 15.8452 9.61C15.8452 9.078 15.7472 8.658 15.5512 8.35C15.3832 8.014 15.1312 7.846 14.7952 7.846C13.8152 7.846 12.8772 8.448 11.9812 9.652C11.0852 10.856 10.4692 12.256 10.1332 13.852C9.99317 14.468 9.92317 15.014 9.92317 15.49C9.92317 15.938 9.99317 16.316 10.1332 16.624C10.3012 16.904 10.5392 17.044 10.8472 17.044Z" fill="black"/>
</svg>
